HIERARCHY
ROOT Hips
{
	OFFSET 0.000000 0.000000 0.000000
	CHANNELS 6 Xposition Yposition Zposition Zrotation Yrotation Xrotation 
	JOINT LeftUpLeg_virtual
	{
		OFFSET 0.000000 0.000000 0.000000
		CHANNELS 3 Zrotation Yrotation Xrotation
		JOINT LeftUpLeg
		{
			OFFSET 10.205400 -3.823500 0.155100
			CHANNELS 3 Zrotation Yrotation Xrotation
			JOINT LeftLeg
			{
				OFFSET 0.708757 -12.982077 0.567790
				CHANNELS 3 Zrotation Yrotation Xrotation
				JOINT LeftFoot
				{
					OFFSET -0.708756 -10.717838 -2.184338
					CHANNELS 3 Zrotation Yrotation Xrotation
					JOINT LeftToeBase
					{
						OFFSET 0.108149 -7.191104 7.560241
						CHANNELS 3 Zrotation Yrotation Xrotation
						End Site
						{
							OFFSET 0.000000 0.000000 0.000000
						}
					}
				}
			}
		}
	}
	JOINT RightUpLeg_virtual
	{
		OFFSET 0.000000 0.000000 0.000000
		CHANNELS 3 Zrotation Yrotation Xrotation
		JOINT RightUpLeg
		{
			OFFSET -10.205400 -3.823500 0.005500
			CHANNELS 3 Zrotation Yrotation Xrotation
			JOINT RightLeg
			{
				OFFSET -0.708756 -12.982134 0.610632
				CHANNELS 3 Zrotation Yrotation Xrotation
				JOINT RightFoot
				{
					OFFSET 0.708754 -10.717769 -1.945823
					CHANNELS 3 Zrotation Yrotation Xrotation
					JOINT RightToeBase
					{
						OFFSET -0.108140 -7.191069 7.372968
						CHANNELS 3 Zrotation Yrotation Xrotation
						End Site
						{
							OFFSET 0.000000 0.000000 0.000000
						}
					}
				}
			}
		}
	}
	JOINT Spine_virtual
	{
		OFFSET 0.000000 0.000000 0.000000
		CHANNELS 3 Zrotation Yrotation Xrotation
		JOINT Spine
		{
			OFFSET 0.000000 6.876099 0.125700
			CHANNELS 3 Zrotation Yrotation Xrotation
			JOINT Spine1
			{
				OFFSET 0.000000 8.022060 0.146608
				CHANNELS 3 Zrotation Yrotation Xrotation
				JOINT Spine2
				{
					OFFSET 0.000000 9.168068 0.167552
					CHANNELS 3 Zrotation Yrotation Xrotation
					JOINT Neck_virtual
					{
						OFFSET 0.000000 0.000000 0.000000
						CHANNELS 3 Zrotation Yrotation Xrotation
						JOINT Neck
						{
							OFFSET 0.000000 10.314075 0.188496
							CHANNELS 3 Zrotation Yrotation Xrotation
							JOINT Head
							{
								OFFSET 0.000000 7.643700 -2.377400
								CHANNELS 3 Zrotation Yrotation Xrotation
								End Site
								{
									OFFSET 0.000000 0.000000 0.000000
								}
							}
						}
					}
					JOINT LeftShoulder_virtual
					{
						OFFSET 0.000000 0.000000 0.000000
						CHANNELS 3 Zrotation Yrotation Xrotation
						JOINT LeftShoulder
						{
							OFFSET 4.392200 8.824978 0.174984
							CHANNELS 3 Zrotation Yrotation Xrotation
							JOINT LeftArm
							{
								OFFSET 8.771219 -2.981674 -0.026999
								CHANNELS 3 Zrotation Yrotation Xrotation
								JOINT LeftForeArm
								{
									OFFSET 8.512804 0.000000 -0.000000
									CHANNELS 3 Zrotation Yrotation Xrotation
									JOINT LeftHand
									{
										OFFSET 18.484802 0.000000 -0.000000
										CHANNELS 3 Zrotation Yrotation Xrotation
										End Site
										{
											OFFSET 0.000000 0.000000 0.000000
										}
									}
								}
							}
						}
					}
					JOINT RightShoulder_virtual
					{
						OFFSET 0.000000 0.000000 0.000000
						CHANNELS 3 Zrotation Yrotation Xrotation
						JOINT RightShoulder
						{
							OFFSET -4.392200 8.824993 0.141379
							CHANNELS 3 Zrotation Yrotation Xrotation
							JOINT RightArm
							{
								OFFSET -8.771282 -2.981682 -0.094208
								CHANNELS 3 Zrotation Yrotation Xrotation
								JOINT RightForeArm
								{
									OFFSET -8.494598 0.000000 0.000000
									CHANNELS 3 Zrotation Yrotation Xrotation
									JOINT RightHand
									{
										OFFSET -18.483803 0.000000 0.000001
										CHANNELS 3 Zrotation Yrotation Xrotation
										End Site
										{
											OFFSET 0.000000 0.000000 0.000000
										}
									}
								}
							}
						}
					}
				}
			}
		}
	}
}
MOTION
Frames: 5
Frame Time: 0.033333
-2.757624 35.708698 31.305567 179.870163 16.882674 -179.574088 -1.927641 -3.316293 10.043687 -14.448251 8.525451 -29.109395 12.390951 8.266905 22.190890 -4.361193 2.038953 2.802578 0.000000 0.000000 0.000000 4.109079 -1.253543 7.064376 -3.321773 -0.362797 -33.790862 -6.530214 3.279132 24.482244 10.436995 7.261783 12.774800 0.000000 0.000000 0.000000 0.302082 -0.161269 -2.275782 2.265094 2.426070 -9.514098 -1.403317 -2.999462 12.917804 0.019670 0.072673 0.046991 -1.407387 -1.313091 14.427603 1.808098 -5.041338 22.076606 0.000000 0.000000 0.000000 0.086176 -1.140845 11.122165 -10.077197 -6.120163 2.787006 -54.170165 3.409248 21.257174 -167.370685 -87.891318 -170.983732 0.000000 0.000000 0.000000 -3.687425 0.610127 10.289511 20.338172 10.317883 3.705860 45.376614 -2.995281 16.787189 -160.363361 75.406695 -162.342368 0.000000 0.000000 0.000000 
-2.746310 35.737823 31.463715 179.904437 16.809398 -179.597625 -2.101807 -3.285416 10.211315 -14.084050 8.323924 -29.389116 12.354955 8.373684 22.080069 -4.267543 1.991732 2.918167 0.000000 0.000000 0.000000 4.325152 -1.634030 7.097209 -3.188812 -1.080802 -34.177406 -6.427687 2.873459 24.326755 10.544788 7.720637 13.208470 0.000000 0.000000 0.000000 0.166566 -0.176697 -1.707530 2.248502 2.297393 -9.251427 -1.370892 -3.074446 12.701683 0.043223 0.036626 0.073158 -1.361171 -1.357200 14.059541 1.677536 -4.832591 21.552930 0.000000 0.000000 0.000000 0.102059 -1.039591 10.798071 -10.021067 -6.023025 2.758008 -54.298713 3.628955 21.505377 -170.648779 -87.913994 -167.819182 0.000000 0.000000 0.000000 -3.686217 0.563846 9.952674 20.253779 10.413109 3.705160 45.514540 -2.929750 17.656217 -159.984149 75.474396 -162.000940 0.000000 0.000000 0.000000 
-2.739115 35.755573 31.556902 179.985197 16.925299 -179.681117 -2.179425 -3.207599 10.458728 -13.890602 8.197657 -29.667190 12.330244 8.268220 22.069999 -4.159066 2.062165 2.941853 0.000000 0.000000 0.000000 4.492969 -1.851347 7.233448 -3.284008 -1.452316 -34.499019 -6.264454 2.033021 24.124802 10.836033 7.962021 13.761806 0.000000 0.000000 0.000000 0.070693 -0.235130 -1.161971 2.239922 2.193127 -8.915873 -1.346691 -3.079022 12.482672 -0.007222 0.027044 0.054061 -1.370711 -1.319795 13.844577 1.401714 -4.765907 21.087343 0.000000 0.000000 0.000000 0.180252 -1.049698 10.480057 -9.919974 -5.856340 2.904055 -54.378305 3.786834 21.605406 -173.100066 -87.783005 -165.545549 0.000000 0.000000 0.000000 -3.612460 0.550722 9.628657 20.140414 10.332517 3.640288 46.093214 -2.892924 17.713539 -159.475587 75.426722 -161.643585 0.000000 0.000000 0.000000 
-2.730013 35.749573 31.578125 179.869781 16.980912 -179.916745 -2.378270 -3.173933 10.794400 -13.814087 7.981236 -29.871703 12.295078 7.949648 22.090995 -3.962205 2.255688 2.808539 0.000000 0.000000 0.000000 4.362010 -2.112287 7.526533 -3.132265 -1.936313 -34.747918 -5.869497 2.078494 24.004167 11.053662 7.558298 14.187686 0.000000 0.000000 0.000000 -0.205581 -0.277207 -0.617499 2.178972 2.135410 -8.549412 -1.291067 -3.054494 12.231957 0.005511 0.047612 -0.005284 -1.349456 -1.375747 13.562364 1.276074 -4.651130 20.506678 0.000000 0.000000 0.000000 0.269821 -1.041174 10.165116 -9.685763 -5.762366 2.887448 -54.460746 3.890762 21.737108 -175.234801 -87.511157 -163.616061 0.000000 0.000000 0.000000 -3.528233 0.532521 9.314913 19.995522 9.979065 3.486079 46.709789 -2.936604 17.190925 -158.186266 75.357655 -160.576381 0.000000 0.000000 0.000000 
-2.718978 35.722134 31.580799 179.940746 17.014619 -179.986317 -2.362702 -3.111895 11.065864 -13.908715 7.818028 -30.121879 12.455169 7.563869 22.224262 -3.853322 2.339933 2.544293 0.000000 0.000000 0.000000 4.432264 -2.338856 7.765021 -3.072154 -2.264338 -35.283429 -5.641595 1.720788 24.370863 11.258464 7.353725 14.443381 0.000000 0.000000 0.000000 -0.296978 -0.288613 -0.259090 2.190408 2.104826 -8.211402 -1.230599 -3.045003 11.983164 0.047738 0.072666 -0.035520 -1.358985 -1.318155 13.285038 1.239800 -4.596117 19.791694 0.000000 0.000000 0.000000 0.279110 -1.075938 9.806038 -9.481556 -5.614728 2.924594 -54.537011 3.764099 21.851601 -174.958943 -87.215191 -164.113135 0.000000 0.000000 0.000000 -3.625236 0.515111 8.962730 19.648323 9.504729 3.185375 47.219355 -2.981071 16.424570 -157.286744 75.345033 -159.994313 0.000000 0.000000 0.000000 
